<?xml version="1.0" encoding="utf-8"?>
<!-- Generator: Adobe Illustrator 21.0.0, SVG Export Plug-In . SVG Version: 6.00 Build 0)  -->
<svg version="1.1" xmlns="http://www.w3.org/2000/svg" xmlns:xlink="http://www.w3.org/1999/xlink" x="0px" y="0px"
	 viewBox="0 0 200 50" enable-background="new 0 0 200 50" xml:space="preserve">
<g id="logo">
	<g>
		<path fill="#FFFFFF" d="M13.7,38.5V17.9H6.3v-4.2H26v4.2h-7.3v20.5H13.7z"/>
		<path fill="#FFFFFF" d="M27.6,26.2c0-2.5,0.4-4.6,1.1-6.3c0.6-1.3,1.3-2.4,2.3-3.4c1-1,2-1.7,3.2-2.2c1.5-0.7,3.3-1,5.3-1
			c3.6,0,6.6,1.1,8.7,3.4s3.3,5.4,3.3,9.4c0,4-1.1,7.1-3.3,9.4s-5.1,3.4-8.7,3.4c-3.7,0-6.6-1.1-8.8-3.4
			C28.7,33.3,27.6,30.2,27.6,26.2z M32.7,26.1c0,2.8,0.6,4.9,1.9,6.4s2.9,2.2,4.9,2.2c2,0,3.6-0.7,4.9-2.2c1.3-1.4,1.9-3.6,1.9-6.5
			c0-2.8-0.6-4.9-1.9-6.3c-1.2-1.4-2.9-2.1-5-2.1c-2.1,0-3.7,0.7-5,2.1C33.4,21.1,32.7,23.2,32.7,26.1z"/>
		<path fill="#FFFFFF" d="M55.4,38.5V13.7h7.5l4.5,16.9l4.4-16.9h7.5v24.7h-4.6V19l-4.9,19.5h-4.8L60,19v19.5H55.4z"/>
		<path fill="#FFFFFF" d="M92.6,30.4l4.9-0.5c0.3,1.6,0.9,2.8,1.8,3.6c0.9,0.8,2.1,1.1,3.6,1.1c1.6,0,2.8-0.3,3.6-1
			c0.8-0.7,1.2-1.5,1.2-2.4c0-0.6-0.2-1.1-0.5-1.5c-0.3-0.4-0.9-0.8-1.8-1.1c-0.6-0.2-1.9-0.6-4-1.1c-2.7-0.7-4.6-1.5-5.6-2.4
			c-1.5-1.4-2.3-3-2.3-5c0-1.3,0.4-2.4,1.1-3.5c0.7-1.1,1.7-1.9,3.1-2.5c1.3-0.6,3-0.9,4.9-0.9c3.1,0,5.4,0.7,7,2
			c1.6,1.4,2.4,3.2,2.5,5.4l-5,0.2c-0.2-1.3-0.7-2.2-1.4-2.7s-1.8-0.8-3.2-0.8c-1.5,0-2.6,0.3-3.4,0.9c-0.5,0.4-0.8,0.9-0.8,1.5
			c0,0.6,0.2,1.1,0.7,1.5c0.6,0.5,2.2,1.1,4.6,1.7c2.4,0.6,4.2,1.2,5.4,1.8c1.2,0.6,2.1,1.5,2.7,2.5c0.7,1.1,1,2.4,1,3.9
			c0,1.4-0.4,2.7-1.2,4s-1.9,2.2-3.3,2.8c-1.4,0.6-3.2,0.9-5.4,0.9c-3.1,0-5.5-0.7-7.2-2.2S92.9,33.2,92.6,30.4z"/>
		<path fill="#FFFFFF" d="M116.9,38.5V13.7h5v9.7h9.8v-9.7h5v24.7h-5V27.6h-9.8v10.8H116.9z"/>
		<path fill="#FFFFFF" d="M164.2,38.5h-5.4l-2.2-5.6h-9.9l-2,5.6h-5.3l9.6-24.7h5.3L164.2,38.5z M155,28.7l-3.4-9.2l-3.3,9.2H155z"
			/>
		<path fill="#FFFFFF" d="M168.4,38.5l-5.9-24.7h5.1l3.7,17l4.5-17h5.9l4.3,17.3l3.8-17.3h5l-6,24.7h-5.3L178.7,20l-4.9,18.5H168.4z
			"/>
	</g>
</g>
</svg>